Coordinates
version=1
nRows=17
nColumns=24
inDegrees=yes

Units are S.I. units (second, meters, Newtons, ...)
Angles are in degrees.

endheader
time	pelvis_tilt	pelvis_list	pelvis_rotation	pelvis_tx	pelvis_ty	pelvis_tz	hip_flexion_r	hip_adduction_r	hip_rotation_r	knee_angle_r	ankle_angle_r	subtalar_angle_r	mtp_angle_r	hip_flexion_l	hip_adduction_l	hip_rotation_l	knee_angle_l	ankle_angle_l	subtalar_angle_l	mtp_angle_l	lumbar_extension	lumbar_bending	lumbar_rotation
      0.59200000	      0.90301596	      1.89466419	     10.83745085	     -0.80597630	      0.87762455	      0.29317947	     28.37029069	     -3.64251412	    -11.23938827	     -6.15715442	      7.06432695	      0.60551713	      5.88938384	    -23.66255313	      0.06685261	      3.01002833	     -8.60106154	     15.00068872	      4.95172733	     16.57363368	     -8.27598345	     -2.00465453	    -13.06573315
      0.59616667	      0.86021091	      1.78244907	     10.95574786	     -0.79981148	      0.87668604	      0.29341503	     28.50416263	     -3.50789680	    -11.20530947	     -6.84923434	      6.92929938	      0.20737505	      5.81005167	    -23.66461021	     -0.17953004	      2.93423164	     -9.28159279	     14.90226499	      5.03382990	     16.64553214	     -8.15544533	     -1.78638615	    -13.04420398
      0.60033333	      0.85262674	      1.66317085	     11.03693694	     -0.79358102	      0.87580980	      0.29372462	     28.58639070	     -3.33604199	    -11.14324265	     -7.52526660	      6.63979580	     -0.29367269	      5.71397059	    -23.68761330	     -0.43684879	      2.72750919	    -10.00293587	     14.80716139	      5.27193172	     16.82054241	     -8.07067549	     -1.58315538	    -13.00224996
      0.60450000	      0.85061175	      1.52873141	     11.11540710	     -0.78729519	      0.87498047	      0.29405876	     28.64495763	     -3.14068571	    -11.08421746	     -8.19014641	      6.31077545	     -0.81879665	      5.64654516	    -23.71333930	     -0.71013915	      2.55315104	    -10.72076559	     14.64987653	      5.42313387	     17.06701359	     -7.98492787	     -1.34514194	    -12.93782438
      0.60866667	      0.82730738	      1.37702273	     11.19385730	     -0.78095597	      0.87417022	      0.29441064	     28.71189193	     -2.92812970	    -11.03629152	     -8.84377065	      5.93581684	     -1.33604663	      5.61791816	    -23.70444117	     -0.99463878	      2.43811303	    -11.45804956	     14.40323003	      5.47927013	     17.28521840	     -7.86581160	     -1.07767647	    -12.86399677
      0.61283333	      0.81974660	      1.22021465	     11.24794205	     -0.77456970	      0.87340237	      0.29482102	     28.75398416	     -2.69005632	    -10.95676887	     -9.48557375	      5.44939591	     -1.94617122	      5.60862901	    -23.70190926	     -1.28287610	      2.27970078	    -12.21943719	     14.15439528	      5.55346524	     17.54915086	     -7.75695249	     -0.82091090	    -12.77108379
      0.61700000	      0.83387580	      1.05990888	     11.26881559	     -0.76814624	      0.87266521	      0.29530278	     28.78758123	     -2.43086571	    -10.87733403	    -10.16422300	      4.95432676	     -2.53074263	      5.94699382	    -23.68534377	     -1.58417833	      1.95759043	    -13.04913307	     13.88705400	      5.78270298	     22.10711131	     -7.67281806	     -0.56648493	    -12.68817223
      0.62116667	      0.81446201	      0.88644463	     11.31167763	     -0.76168070	      0.87198595	      0.29574937	     28.82773036	     -2.17175281	    -10.81635253	    -10.79427680	      4.33163111	     -3.13661264	      5.94332250	    -23.66418643	     -1.87260428	      1.92838379	    -13.80768203	     13.46956815	      5.62334178	     22.15923835	     -7.54939342	     -0.28440328	    -12.56201710
      0.62533333	      0.78971725	      0.71715180	     11.31877504	     -0.75519929	      0.87130814	      0.29628321	     28.88241089	     -1.89528093	    -10.68222230	    -11.43937903	      3.66315789	     -3.83920602	      5.95746715	    -23.60565916	     -2.15237888	      1.79861601	    -14.63375782	     13.08321588	      5.58995365	     22.26282616	     -7.41176347	     -0.01616859	    -12.42066870
      0.62950000	      0.79782915	      0.53909122	     11.30662433	     -0.74870245	      0.87069606	      0.29687184	     28.91137812	     -1.59302679	    -10.53205159	    -12.10439755	      2.96485798	     -4.61550311	      6.00912868	    -23.56185258	     -2.44631907	      1.62801275	    -15.49912926	     12.74500891	      5.60437367	     22.47945246	     -7.32286229	      0.25135076	    -12.25934298
      0.63366667	      0.76662932	      0.35029492	     11.29192224	     -0.74217247	      0.87008502	      0.29747026	     28.98442536	     -1.29108393	    -10.40375201	    -12.77892186	      2.25290767	     -5.27924616	      6.07534541	    -23.45402736	     -2.74024177	      1.49282888	    -16.39543974	     12.29253527	      5.56653325	     22.73827786	     -7.17617754	      0.53746967	    -12.09330470
      0.63783333	      0.73021800	      0.16341047	     11.26347559	     -0.73563425	      0.86951205	      0.29809484	     29.07659532	     -0.99028166	    -10.26720830	    -13.48824206	      1.55068337	     -5.91828306	      6.15374521	    -23.31963773	     -3.02394248	      1.36997439	    -17.32302389	     11.80336532	      5.50286240	     23.04537634	     -7.02840925	      0.81679088	    -11.92123336
      0.64200000	      0.68702797	     -0.02678622	     11.22267655	     -0.72909126	      0.86896752	      0.29875374	     29.18929806	     -0.68463249	    -10.12221819	    -14.22989766	      0.86652327	     -6.52942835	      6.24368155	    -23.15471258	     -3.30582186	      1.25556560	    -18.28771557	     11.27390501	      5.42184882	     23.40289577	     -6.87163361	      1.09902152	    -11.73459633
      0.64616667	      0.63464363	     -0.22152834	     11.16936488	     -0.72254347	      0.86844188	      0.29943658	     29.32908602	     -0.37618306	     -9.97474650	    -15.01263260	      0.21860010	     -7.09990675	      6.34458534	    -22.96094923	     -3.58601032	      1.14423761	    -19.28498717	     10.69558365	      5.32447376	     23.82106310	     -6.70920750	      1.38138547	    -11.53954819
      0.65033333	      0.57255671	     -0.40875218	     11.10309207	     -0.71600026	      0.86794850	      0.30014057	     29.49871278	     -0.07837454	     -9.82809527	    -15.84930283	     -0.36126542	     -7.58679853	      6.43583058	    -22.73043593	     -3.84937313	      1.04875205	    -20.31835957	     10.08473850	      5.21148588	     24.23753311	     -6.53720579	      1.65505072	    -11.34113969
      0.65450000	      0.54380997	     -0.63702418	     11.03467914	     -0.70941873	      0.86752651	      0.30086440	     29.63594883	      0.26278987	     -9.71569779	    -16.69471231	     -0.86254917	     -7.97771358	      7.53644897	    -22.49682507	     -4.18068621	      0.85047036	    -21.39682946	      9.40292312	      5.15928547	     29.50696754	     -6.39957299	      1.99392290	    -11.19540892
      0.65866667	      0.46889432	     -0.80968169	     10.95117542	     -0.70289948	      0.86710531	      0.30158948	     29.85382524	      0.53890067	     -9.56522710	    -17.63050817	     -1.30112860	     -8.35595080	      7.50808446	    -22.20853571	     -4.41035914	      0.82256131	    -22.48976029	      8.67340710	      4.94946091	     29.54490902	     -6.22294947	      2.24582881	    -10.98259575
